<svg width="63" height="47" viewBox="0 0 63 47" fill="none" xmlns="http://www.w3.org/2000/svg">
<path d="M4.7569 38.5579C5.00058 38.834 5.13038 39.1799 5.12358 39.5348C5.13601 39.7664 5.0914 39.9975 4.99304 40.2111C4.89469 40.4247 4.74511 40.6154 4.55539 40.7689C4.08201 41.0962 3.49555 41.2563 2.90369 41.2196H0V35.0281H2.84423C3.40566 34.9939 3.96263 35.1393 4.41995 35.4395C4.60363 35.5802 4.74908 35.7581 4.84482 35.9592C4.94055 36.1602 4.98396 36.3789 4.97162 36.5979C4.98831 36.9394 4.87115 37.2752 4.64128 37.5446C4.42059 37.7906 4.1156 37.9611 3.77579 38.0286C4.16101 38.0929 4.50873 38.2805 4.7569 38.5579ZM1.35109 37.6232H2.56674C2.84303 37.642 3.11743 37.5689 3.33974 37.4176C3.43101 37.3418 3.50203 37.2479 3.54728 37.143C3.59254 37.0381 3.61082 36.925 3.60071 36.8126C3.60929 36.7006 3.59063 36.5883 3.54607 36.4837C3.50151 36.3791 3.43217 36.2848 3.34304 36.2077C3.11408 36.0521 2.83115 35.9779 2.54692 35.999H1.35109V37.6232ZM3.45866 39.9976C3.55623 39.9201 3.63292 39.823 3.68277 39.7138C3.73262 39.6047 3.75428 39.4865 3.74606 39.3685C3.7535 39.249 3.73085 39.1297 3.67988 39.0195C3.6289 38.9094 3.55095 38.8115 3.45205 38.7333C3.21421 38.5718 2.9217 38.4926 2.6262 38.5095H1.35109V40.2123H2.64272C2.93345 40.2277 3.22122 40.152 3.45866 39.9976Z" fill="#AFB1B8"/>
<path d="M10.5709 41.2196L8.98857 38.7999H8.39396V41.2196H7.03296V35.0281H9.60961C10.2591 34.9866 10.9012 35.175 11.4034 35.5544C11.7635 35.8904 11.9808 36.3332 12.0159 36.8029C12.051 37.2727 11.9018 37.7384 11.595 38.1163C11.2771 38.4497 10.8428 38.6721 10.3661 38.7454L12.0508 41.2196H10.5709ZM8.39396 37.956H9.50721C10.2802 37.956 10.6667 37.6434 10.6667 37.0183C10.6746 36.8907 10.6534 36.7629 10.6045 36.6432C10.5556 36.5234 10.48 36.4143 10.3826 36.3227C10.1383 36.1366 9.82374 36.0464 9.50721 36.0716H8.38075L8.39396 37.956Z" fill="#AFB1B8"/>
<path d="M18.0102 39.9733H15.2981L14.8191 41.2194H13.392L15.8828 35.0975H17.4255L19.9063 41.2194H18.4793L18.0102 39.9733ZM17.6468 39.0356L16.6558 36.4223L15.6648 39.0356H17.6468Z" fill="#AFB1B8"/>
<path d="M27.3224 41.2195H25.9713L22.9421 37.0092V41.2195H21.5943V35.0281H22.9421L25.9713 39.2626V35.0281H27.3224V41.2195Z" fill="#AFB1B8"/>
<path d="M35.0326 39.7375C34.7532 40.205 34.3276 40.5852 33.8103 40.8294C33.2222 41.1014 32.5695 41.2355 31.9109 41.2196H29.506V35.0281H31.9109C32.5684 35.0124 33.2202 35.1432 33.8103 35.4092C34.3275 35.6479 34.7536 36.0243 35.0326 36.489C35.3107 36.9926 35.4556 37.549 35.4556 38.1133C35.4556 38.6776 35.3107 39.2339 35.0326 39.7375ZM33.4866 39.5893C33.8722 39.178 34.0842 38.6538 34.0842 38.1118C34.0842 37.5697 33.8722 37.0455 33.4866 36.6342C33.0205 36.2617 32.4127 36.0725 31.7952 36.1079H30.8571V40.1156H31.7952C32.4127 40.151 33.0205 39.9619 33.4866 39.5893Z" fill="#AFB1B8"/>
<path d="M18.8558 0.589355C18.8558 0.589355 36.2945 6.61749 35.9245 15.3406V30.0949C35.9245 30.0949 18.4991 24.0637 18.8624 15.3406L18.8558 0.589355Z" fill="#AFB1B8"/>
<path d="M51.4603 26.6407C54.7538 24.5654 58.5633 23.28 62.5399 22.9022V18.2836C57.9579 19.9005 54.0709 22.8325 51.4603 26.6407Z" fill="#AFB1B8"/>
<path d="M49.4816 28.0321C52.1773 23.0623 56.8505 19.2272 62.54 17.3158V4.00732C62.54 4.00732 37.705 12.5943 38.2303 25.0166V46.0228C38.2303 46.0228 39.3369 45.6386 41.0778 44.9188C41.0778 44.2473 41.0778 43.5698 41.1571 42.8892C41.6711 37.1222 44.6654 31.7782 49.4816 28.0321Z" fill="#AFB1B8"/>
<path d="M47.1197 35.8357C47.2502 34.3789 47.5413 32.9379 47.9885 31.5347C44.9896 34.7697 43.1734 38.7841 42.7956 43.0132C42.7592 43.4125 42.7394 43.8117 42.7295 44.2231C44.14 43.603 45.7818 42.8287 47.5062 41.9183C47.0662 39.9174 46.936 37.8698 47.1197 35.8357Z" fill="#AFB1B8"/>
<path d="M48.1075 35.9114C47.9421 37.7517 48.0454 39.6039 48.4147 41.4192C55.1999 37.7019 62.8241 31.9581 62.5301 25.0166V24.4116C57.6824 24.9083 53.1468 26.8487 49.6204 29.9346C48.7948 31.847 48.2849 33.8614 48.1075 35.9114Z" fill="#AFB1B8"/>
</svg>
